<?xml version="1.0" encoding="UTF-8"?><svg id="Layer_1" xmlns="http://www.w3.org/2000/svg" viewBox="0 0 575 137.74"><path fill="#0789a2" d="M267.82,88.24l-2.24-55.07c-.26-1.61,1.3-.95,1.3-.95,1.53,.39,4.1,.89,7.76-.08,0,0,1.3-.53,1.17,1.08l-2.37,55.03h-5.61Z"/><path fill="#0789a2" d="M276.19,5.61c0,3.1-2.52,5.61-5.59,5.61s-5.6-2.52-5.6-5.61,2.49-5.61,5.6-5.61,5.59,2.52,5.59,5.61h0Z"/><path fill="#ffb71b" d="M272.7,17.4l27.7-13.82c3.24-1.91,4.8-2.17,5.51-1.22,.89,1.24-.09,2.62-2.73,4.35l-29.96,19.3c-1.29,.91-3.15,.91-3.15,.91-1.22-.2-1.4-.09-2.98-.91l-25.28-17.42c-2.57-1.95-4.68-3.06-3.26-4.66,1.4-1.6,2.53-.44,6.05,1.5l23.88,11.87s1.96,1.21,4.21,.1h0Z"/><path fill="#0789a2" d="M173.83,75.32s4.69,4.67,11.21,6.52c.49,.15,.94,.41,.94,.92s-.42,.89-.94,.93c-13.61,1.65-21.83-6.77-21.83-6.77-7.72-7.08-13.79-15.26-13.79-15.26-.28-.35-.69-1.14-.69-1.82,0-1.33,.72-2.16,1.74-2.43l.53-.11c4.64-1.04,10.74-4.4,10.74-8.2,0-4.75-4.38-6.91-11.6-6.91-2.4,0-3.87-.02-5.76,0v40.08h-9.93V35.78h16.92c13.19,0,20.85,4.28,20.85,12.52,0,5.36-5.72,10.15-11.7,12.52,0,0,3.53,5.73,13.29,14.5h0Z"/><path fill="#0789a2" d="M27.74,82.94C9.5,82.94,0,74.25,0,60.01c0-13.32,9.18-24.87,30.13-24.87,4.04,0,8.73,.44,12.67,1.34l-.98,7.26c-4.26-1.08-8.52-1.71-12.67-1.71-12.32,0-18.55,7.43-18.55,17.18,0,10.74,6.88,16.56,19.22,16.56,4.47,0,9.18-.9,12.67-2.24l.88,7.16c-4.58,1.43-9.94,2.25-15.61,2.25h0Z"/><polygon fill="#0789a2" points="71.79 82.31 71.79 35.76 103.88 35.76 103.88 42.13 81.72 41.58 81.72 55.87 102.8 55.28 102.8 61.46 81.72 60.9 81.72 76.32 103.88 75.77 103.88 82.31 71.79 82.31 71.79 82.31 71.79 82.31"/><polygon fill="#0789a2" points="222.44 42.56 223.09 82.28 213.16 82.28 213.7 42.56 196.78 42.56 196.78 35.76 239.58 35.76 239.58 42.56 222.44 42.56 222.44 42.56 222.44 42.56"/><path fill="#0789a2" d="M396.45,83.02c-18.45,0-27.07-9.74-27.07-23.54,0-15.39,13.3-24.43,28.81-24.43,16.7,0,27.39,8.14,27.39,23.55s-13.1,24.42-29.14,24.42h0Zm.97-41.62c-9.27,0-17.47,6.46-17.47,17.38,0,9.48,4.7,18.03,17.15,18.03,9.93,0,17.8-6.39,17.8-17.48s-6.77-17.92-17.48-17.92h0Z"/><path fill="#0789a2" d="M329.13,62.06c-1.56-.09-2-1.74-2-2.22,0-1.33,.7-2.16,1.73-2.43l.53-.11c4.63-1.04,10.75-4.4,10.75-8.2,0-4.75-4.39-6.91-11.6-6.91-2.39,0-3.59,0-5.74,0v40.08h-9.94V35.78h16.93c13.2,0,20.83,4.28,20.83,12.52,0,3.23-2.15,6.26-5.01,8.6-.27,.25-.55,.44-.83,.66-1.79,1.31-3.68,2.46-5.83,3.26-2.58,.95-5.33,1.48-9.65,1.25h-.17Z"/><path fill="#0789a2" d="M488.14,75.32s4.69,4.67,11.22,6.53c.5,.14,.94,.41,.94,.93s-.42,.87-.94,.93c-13.62,1.63-21.83-6.79-21.83-6.79-7.7-7.08-13.78-15.26-13.78-15.26-.28-.33-.68-1.13-.68-1.82,0-1.33,.7-2.16,1.74-2.42l.53-.1c4.64-1.05,10.75-4.42,10.75-8.21,0-4.75-4.41-6.91-11.6-6.91-2.41,0-3.86-.02-5.76,0v40.11h-9.94V35.78c3.75,0,10.15,0,16.91,0,13.2,0,20.85,4.29,20.85,12.52,0,5.36-5.72,10.15-11.69,12.52,0,0,3.54,5.74,13.28,14.5h0Z"/><polygon fill="#0789a2" points="536.76 42.57 537.42 82.3 527.48 82.3 528.01 42.57 511.11 42.57 511.11 35.78 553.89 35.78 553.89 42.57 536.76 42.57 536.76 42.57 536.76 42.57"/><path fill="#0789a2" d="M569.72,35.59c1.46,0,2.7,.51,3.74,1.55,1.03,1.03,1.55,2.28,1.55,3.74s-.51,2.7-1.55,3.74-2.28,1.55-3.74,1.55-2.7-.52-3.74-1.55-1.55-2.28-1.55-3.74,.51-2.7,1.55-3.74c1.03-1.03,2.28-1.55,3.74-1.55Zm0,1.04c-1.17,0-2.16,.41-2.99,1.23-.83,.82-1.24,1.82-1.24,3s.41,2.18,1.24,3c.83,.83,1.83,1.24,2.99,1.24s2.18-.42,3-1.25c.83-.83,1.24-1.83,1.24-3s-.41-2.16-1.24-2.99c-.83-.83-1.83-1.24-3-1.24Zm2.5,7.07h-1.4l-.45-.93c-.22-.45-.47-.82-.76-1.11-.19-.19-.49-.29-.92-.29h-.21v2.32h-1.12v-5.61h2.76c.57,0,1.01,.14,1.31,.43,.3,.29,.45,.67,.45,1.14,0,.43-.14,.78-.4,1.06s-.64,.45-1.11,.51v.03c.24,.09,.44,.2,.57,.35,.14,.15,.35,.47,.63,.96l.65,1.13Zm-3.74-3.2h1.17c.69,0,1.03-.26,1.03-.77s-.39-.76-1.15-.76h-1.04v1.54Z"/><g><path fill="#000" d="M139.88,124.47h2.41l4.99,12.96h-2.43l-1.22-3.43h-5.17l-1.22,3.43h-2.34l4.97-12.96Zm-.8,7.81h3.96l-1.94-5.57h-.05l-1.96,5.57Z"/><path fill="#000" d="M158.35,124.47h5.72c3.7,0,4.41,2.4,4.41,4.01s-.71,3.99-4.41,3.97h-3.45v4.97h-2.27v-12.96Zm2.27,6.14h3.32c1.02,0,2.27-.51,2.27-2.14s-1.03-2.14-2.23-2.14h-3.36v4.28Z"/><path fill="#000" d="M172.84,124.47h9.33v1.96h-7.06v3.4h6.53v1.85h-6.53v3.79h7.19v1.96h-9.46v-12.96Z"/><path fill="#000" d="M190.13,124.47h2.41l4.99,12.96h-2.43l-1.22-3.43h-5.17l-1.22,3.43h-2.34l4.97-12.96Zm-.8,7.81h3.96l-1.94-5.57h-.05l-1.96,5.57Z"/><path fill="#000" d="M201.16,124.47h6.19c2.83,0,4.28,1.31,4.28,3.5,0,2.49-1.72,3.12-2.14,3.27v.04c.78,.11,1.92,.69,1.92,2.74,0,1.51,.22,2.89,.71,3.41h-2.43c-.34-.56-.34-1.27-.34-1.91,0-2.38-.49-3.43-2.58-3.43h-3.34v5.34h-2.27v-12.96Zm2.27,5.9h3.72c1.43,0,2.21-.71,2.21-2.07,0-1.65-1.07-1.98-2.25-1.98h-3.68v4.05Z"/><path fill="#000" d="M217.82,133.11c0,2,1.47,2.78,3.29,2.78,2,0,2.74-.98,2.74-1.96s-.54-1.4-1.07-1.6c-.91-.35-2.09-.58-3.87-1.07-2.21-.6-2.87-1.94-2.87-3.29,0-2.6,2.4-3.81,4.74-3.81,2.7,0,4.97,1.43,4.97,4.14h-2.27c-.11-1.67-1.23-2.29-2.8-2.29-1.05,0-2.38,.38-2.38,1.69,0,.91,.62,1.42,1.54,1.67,.2,.06,3.07,.8,3.74,1,1.71,.51,2.52,1.96,2.52,3.3,0,2.9-2.58,4.07-5.16,4.07-2.96,0-5.35-1.42-5.41-4.63h2.27Z"/><path fill="#000" d="M242.2,130.95c0,3.7-2.32,6.79-6.21,6.79s-6.21-3.09-6.21-6.79,2.32-6.79,6.21-6.79,6.21,3.09,6.21,6.79Zm-10.15,0c0,2.49,1.16,4.94,3.94,4.94s3.94-2.45,3.94-4.94-1.16-4.94-3.94-4.94-3.94,2.45-3.94,4.94Z"/><path fill="#000" d="M246.57,124.47h2.4l5.92,9.55h.04v-9.55h2.16v12.96h-2.4l-5.9-9.53h-.05v9.53h-2.16v-12.96Z"/><path fill="#000" d="M268.12,124.47h2.36l3.25,10.26h.04l3.32-10.26h2.31l-4.43,12.96h-2.52l-4.32-12.96Z"/><path fill="#000" d="M282.93,124.47h2.27v7.55c0,1.74,.11,3.76,3.05,3.76s3.05-2.01,3.05-3.76v-7.55h2.27v8.3c0,3.32-2.12,4.97-5.32,4.97s-5.32-1.65-5.32-4.97v-8.3Z"/><path fill="#000" d="M298.57,124.47h9.33v1.96h-7.06v3.4h6.54v1.85h-6.54v3.79h7.19v1.96h-9.46v-12.96Z"/><path fill="#000" d="M319.83,124.47h6.3c2.32,0,3.85,1.05,3.85,3.21,0,1.31-.67,2.25-1.85,2.76v.04c1.58,.35,2.43,1.58,2.43,3.34,0,2.03-1.42,3.61-4.77,3.61h-5.95v-12.96Zm2.27,5.43h3.7c1.09,0,1.91-.63,1.91-1.8,0-1.31-.67-1.78-1.91-1.78h-3.7v3.58Zm0,5.68h4.01c1.38,0,2.18-.74,2.18-2.05s-.8-2-2.18-2h-4.01v4.05Z"/><path fill="#000" d="M334.85,124.47h2.27v7.55c0,1.74,.11,3.76,3.05,3.76s3.05-2.01,3.05-3.76v-7.55h2.27v8.3c0,3.32-2.12,4.97-5.32,4.97s-5.32-1.65-5.32-4.97v-8.3Z"/><path fill="#000" d="M351.98,133.11c0,2,1.47,2.78,3.29,2.78,2,0,2.74-.98,2.74-1.96s-.54-1.4-1.07-1.6c-.91-.35-2.09-.58-3.87-1.07-2.21-.6-2.87-1.94-2.87-3.29,0-2.6,2.4-3.81,4.74-3.81,2.7,0,4.97,1.43,4.97,4.14h-2.27c-.11-1.67-1.23-2.29-2.79-2.29-1.05,0-2.38,.38-2.38,1.69,0,.91,.62,1.42,1.54,1.67,.2,.06,3.07,.8,3.74,1,1.71,.51,2.52,1.96,2.52,3.3,0,2.9-2.58,4.07-5.16,4.07-2.96,0-5.36-1.42-5.41-4.63h2.27Z"/><path fill="#000" d="M364.64,124.47h2.27v12.96h-2.27v-12.96Z"/><path fill="#000" d="M371.99,124.47h2.4l5.92,9.55h.04v-9.55h2.16v12.96h-2.4l-5.9-9.53h-.05v9.53h-2.16v-12.96Z"/><path fill="#000" d="M387.57,124.47h9.33v1.96h-7.06v3.4h6.54v1.85h-6.54v3.79h7.19v1.96h-9.46v-12.96Z"/><path fill="#000" d="M402.88,133.11c0,2,1.47,2.78,3.29,2.78,2,0,2.74-.98,2.74-1.96s-.54-1.4-1.07-1.6c-.91-.35-2.09-.58-3.87-1.07-2.21-.6-2.87-1.94-2.87-3.29,0-2.6,2.4-3.81,4.74-3.81,2.7,0,4.97,1.43,4.97,4.14h-2.27c-.11-1.67-1.23-2.29-2.79-2.29-1.05,0-2.38,.38-2.38,1.69,0,.91,.62,1.42,1.54,1.67,.2,.06,3.07,.8,3.74,1,1.71,.51,2.52,1.96,2.52,3.3,0,2.9-2.58,4.07-5.16,4.07-2.96,0-5.36-1.42-5.41-4.63h2.27Z"/><path fill="#000" d="M417.03,133.11c0,2,1.47,2.78,3.29,2.78,2,0,2.74-.98,2.74-1.96s-.54-1.4-1.07-1.6c-.91-.35-2.09-.58-3.87-1.07-2.21-.6-2.87-1.94-2.87-3.29,0-2.6,2.4-3.81,4.74-3.81,2.7,0,4.97,1.43,4.97,4.14h-2.27c-.11-1.67-1.23-2.29-2.79-2.29-1.05,0-2.38,.38-2.38,1.69,0,.91,.62,1.42,1.54,1.67,.2,.06,3.07,.8,3.74,1,1.71,.51,2.52,1.96,2.52,3.3,0,2.9-2.58,4.07-5.16,4.07-2.96,0-5.36-1.42-5.41-4.63h2.27Z"/></g><rect fill="#000" x=".28" y="104.47" width="553.83" height=".77"/></svg>